# xmcd
#
# Track frame offsets:
#	150
#	10627
#	25242
#	35522
#	53040
#	66035
#	78677
#	89197
#	102065
#	113227
#	124312
#	136210
#	149895
#	168692
#	190152
#	201095
#	218935
#	230567
#
# Disc length: 3208 seconds
#
# Revision: 1
# Processed by: cddbd v1.5.1PL0 Copyright (c) Steve Scherf et al.
# Submitted via: audiograbber 1.83.01
#
DISCID=0d0c8612
DTITLE=Various Artist - Country Stars Live On Stage vol.1
DYEAR=1991
DGENRE=Country
TTITLE0=Mickey Gilley - 01 - Diggy Liggy Lo
TTITLE1=Barbara Fairchild - 02 -Rocky Top
TTITLE2=Boxcar Willie - 03 - Wabash Cannonball
TTITLE3=Atlanta - 04 - Pictures
TTITLE4=Tanya Tucker - 05 - Antonio Stroll
TTITLE5=Moe Brabndy - 06 - Rodeo Romeo
TTITLE6=Stella Parton - 07 - Danger Of A Stranger
TTITLE7=Tammy Wynette - 08 - Stand By Your Man
TTITLE8=Tammy Wynette - 09 - D.I.V.O.R.C.E.
TTITLE9=George Jones - 10 - No Show Jones
TTITLE10=Sweethearts Of Rodeo - 11 - Hey Doll Baby
TTITLE11=Ed Bruce - 12 - Texas When I Die
TTITLE12=Bobby Bare - 13 - Marie Laveau
TTITLE13=Jonny Russell - 14 - Red Necks, White Socks And Blue Ribbon Bear
TTITLE14=Ronny McDowell - 15 - Watching Girls Go By
TTITLE15=Becky Hobbs - 16 - Yes I'm Ready
TTITLE16=Patty Loveless - 17 - Lonely Days, Lonely Nights
TTITLE17=Leroy van Dyke - 18 - The Auctioneer Song
EXTD=
EXTT0=
EXTT1=
EXTT2=
EXTT3=
EXTT4=
EXTT5=
EXTT6=
EXTT7=
EXTT8=
EXTT9=
EXTT10=
EXTT11=
EXTT12=
EXTT13=
EXTT14=
EXTT15=
EXTT16=
EXTT17=
PLAYORDER=
